<mxfile host="app.diagrams.net" modified="2021-05-07T13:18:43.162Z" agent="5.0 (Windows NT 10.0; Win64; x64) AppleWebKit/537.36 (KHTML, like Gecko) Chrome/90.0.4430.93 Safari/537.36" etag="NtQ3HUkkR4QlJXTAFfeB" version="14.6.11" type="github">
  <diagram name="Page-1" id="c7488fd3-1785-93aa-aadb-54a6760d102a">
    <mxGraphModel dx="1178" dy="659" grid="1" gridSize="10" guides="1" tooltips="1" connect="1" arrows="1" fold="1" page="1" pageScale="1" pageWidth="1100" pageHeight="850" background="#ffffff" math="0" shadow="0">
      <root>
        <mxCell id="0" />
        <mxCell id="1" parent="0" />
        <mxCell id="caXW-uly-vIiH3S3BezC-6" value="" style="edgeStyle=orthogonalEdgeStyle;rounded=0;orthogonalLoop=1;jettySize=auto;html=1;shape=link;" edge="1" parent="1" source="caXW-uly-vIiH3S3BezC-1" target="caXW-uly-vIiH3S3BezC-4">
          <mxGeometry relative="1" as="geometry" />
        </mxCell>
        <mxCell id="caXW-uly-vIiH3S3BezC-8" value="" style="edgeStyle=orthogonalEdgeStyle;rounded=0;orthogonalLoop=1;jettySize=auto;html=1;" edge="1" parent="1" source="caXW-uly-vIiH3S3BezC-1" target="caXW-uly-vIiH3S3BezC-7">
          <mxGeometry relative="1" as="geometry" />
        </mxCell>
        <mxCell id="caXW-uly-vIiH3S3BezC-1" value="recepción por parte de comprador" style="rounded=1;whiteSpace=wrap;html=1;" vertex="1" parent="1">
          <mxGeometry x="190" y="240" width="120" height="60" as="geometry" />
        </mxCell>
        <mxCell id="caXW-uly-vIiH3S3BezC-3" value="" style="edgeStyle=orthogonalEdgeStyle;rounded=0;orthogonalLoop=1;jettySize=auto;html=1;" edge="1" parent="1" source="caXW-uly-vIiH3S3BezC-2" target="caXW-uly-vIiH3S3BezC-1">
          <mxGeometry relative="1" as="geometry" />
        </mxCell>
        <mxCell id="caXW-uly-vIiH3S3BezC-2" value="envío de factura desde proveedor" style="ellipse;whiteSpace=wrap;html=1;aspect=fixed;" vertex="1" parent="1">
          <mxGeometry x="70" y="230" width="80" height="80" as="geometry" />
        </mxCell>
        <mxCell id="caXW-uly-vIiH3S3BezC-4" value="fecha de documento&lt;br&gt;fecha de recepción&lt;br&gt;monto" style="shape=internalStorage;whiteSpace=wrap;html=1;backgroundOutline=1;" vertex="1" parent="1">
          <mxGeometry x="170" y="340" width="160" height="80" as="geometry" />
        </mxCell>
        <mxCell id="caXW-uly-vIiH3S3BezC-10" value="" style="edgeStyle=orthogonalEdgeStyle;rounded=0;orthogonalLoop=1;jettySize=auto;html=1;" edge="1" parent="1" source="caXW-uly-vIiH3S3BezC-7" target="caXW-uly-vIiH3S3BezC-9">
          <mxGeometry relative="1" as="geometry" />
        </mxCell>
        <mxCell id="caXW-uly-vIiH3S3BezC-7" value="imputación en la línea del clasificador que corresponda" style="rounded=1;whiteSpace=wrap;html=1;" vertex="1" parent="1">
          <mxGeometry x="380" y="240" width="120" height="60" as="geometry" />
        </mxCell>
        <mxCell id="caXW-uly-vIiH3S3BezC-12" style="edgeStyle=orthogonalEdgeStyle;rounded=0;orthogonalLoop=1;jettySize=auto;html=1;exitX=0.5;exitY=0;exitDx=0;exitDy=0;entryX=0;entryY=0.5;entryDx=0;entryDy=0;" edge="1" parent="1" source="caXW-uly-vIiH3S3BezC-9" target="caXW-uly-vIiH3S3BezC-11">
          <mxGeometry relative="1" as="geometry" />
        </mxCell>
        <mxCell id="caXW-uly-vIiH3S3BezC-14" style="edgeStyle=orthogonalEdgeStyle;rounded=0;orthogonalLoop=1;jettySize=auto;html=1;exitX=0.5;exitY=1;exitDx=0;exitDy=0;" edge="1" parent="1" source="caXW-uly-vIiH3S3BezC-9" target="caXW-uly-vIiH3S3BezC-13">
          <mxGeometry relative="1" as="geometry" />
        </mxCell>
        <mxCell id="caXW-uly-vIiH3S3BezC-9" value="¿Se paga dentro del periodo presupuestario?" style="rhombus;whiteSpace=wrap;html=1;" vertex="1" parent="1">
          <mxGeometry x="540" y="205" width="130" height="130" as="geometry" />
        </mxCell>
        <mxCell id="caXW-uly-vIiH3S3BezC-11" value="Se registra el pago" style="rounded=1;whiteSpace=wrap;html=1;" vertex="1" parent="1">
          <mxGeometry x="710" y="150" width="120" height="60" as="geometry" />
        </mxCell>
        <mxCell id="caXW-uly-vIiH3S3BezC-20" value="" style="edgeStyle=orthogonalEdgeStyle;rounded=0;orthogonalLoop=1;jettySize=auto;html=1;" edge="1" parent="1" source="caXW-uly-vIiH3S3BezC-13" target="caXW-uly-vIiH3S3BezC-19">
          <mxGeometry relative="1" as="geometry" />
        </mxCell>
        <mxCell id="caXW-uly-vIiH3S3BezC-13" value="el registro original queda en blanco respecto de fecha de pago y monto&lt;br&gt;" style="rounded=1;whiteSpace=wrap;html=1;" vertex="1" parent="1">
          <mxGeometry x="710" y="330" width="120" height="60" as="geometry" />
        </mxCell>
        <mxCell id="caXW-uly-vIiH3S3BezC-15" value="Si" style="text;html=1;strokeColor=none;fillColor=none;align=center;verticalAlign=middle;whiteSpace=wrap;rounded=0;" vertex="1" parent="1">
          <mxGeometry x="600" y="150" width="40" height="20" as="geometry" />
        </mxCell>
        <mxCell id="caXW-uly-vIiH3S3BezC-16" value="No" style="text;html=1;strokeColor=none;fillColor=none;align=center;verticalAlign=middle;whiteSpace=wrap;rounded=0;" vertex="1" parent="1">
          <mxGeometry x="600" y="370" width="40" height="20" as="geometry" />
        </mxCell>
        <mxCell id="caXW-uly-vIiH3S3BezC-18" value="" style="edgeStyle=orthogonalEdgeStyle;rounded=0;orthogonalLoop=1;jettySize=auto;html=1;" edge="1" parent="1" source="caXW-uly-vIiH3S3BezC-17" target="caXW-uly-vIiH3S3BezC-11">
          <mxGeometry relative="1" as="geometry" />
        </mxCell>
        <mxCell id="caXW-uly-vIiH3S3BezC-17" value="fecha de pago&lt;br&gt;monto" style="shape=internalStorage;whiteSpace=wrap;html=1;backgroundOutline=1;" vertex="1" parent="1">
          <mxGeometry x="690" y="30" width="160" height="80" as="geometry" />
        </mxCell>
        <mxCell id="caXW-uly-vIiH3S3BezC-21" style="edgeStyle=orthogonalEdgeStyle;rounded=0;orthogonalLoop=1;jettySize=auto;html=1;exitX=0.5;exitY=1;exitDx=0;exitDy=0;entryX=0;entryY=0.5;entryDx=0;entryDy=0;" edge="1" parent="1" source="caXW-uly-vIiH3S3BezC-19" target="caXW-uly-vIiH3S3BezC-9">
          <mxGeometry relative="1" as="geometry" />
        </mxCell>
        <mxCell id="caXW-uly-vIiH3S3BezC-19" value="Al siguiente periodo se imputa el documento en la línea de Servicio de la Deuda" style="rounded=1;whiteSpace=wrap;html=1;" vertex="1" parent="1">
          <mxGeometry x="870" y="330" width="150" height="60" as="geometry" />
        </mxCell>
      </root>
    </mxGraphModel>
  </diagram>
</mxfile>
